<svg width="706" height="655" viewBox="0 0 706 655" fill="none" xmlns="http://www.w3.org/2000/svg" xmlns:xlink="http://www.w3.org/1999/xlink">
<g filter="url(#filter0_d_26_55)">
<path opacity="0.88" d="M123.78 47.999C123.78 47.999 283.248 -21.9927 420.561 7.06167C581.994 41.2195 610.868 121.95 625.932 232.217C667.987 276.455 732.589 256.794 685.562 268.532C648.529 277.776 605.974 255.987 608.466 268.532C626.028 356.945 577.916 380.542 589.635 400.129C646.127 494.549 539.42 590.289 539.42 590.289C539.42 590.289 500.324 631.887 339.008 645.753C221.002 655.896 118.061 600.854 118.061 600.854C-32.5849 516.338 139.402 427.367 102.368 400.129C25.1624 343.345 -15.5752 268.532 13.3064 163.115C37.6093 74.4101 123.78 47.999 123.78 47.999Z" fill="white"/>
<g filter="url(#filter1_d_26_55)">
<g id="Repeat group 1_inner" data-figma-trr="r1p464-0f">
<g filter="url(#filter2_d_26_55)">
<path d="M145.383 297.612L146.999 293.47C147.319 292.343 147.418 291.468 147.298 290.845C147.256 290.217 147.222 289.707 147.196 289.315C147.17 288.922 147.1 288.454 146.985 287.911C146.864 287.288 146.551 286.72 146.043 286.205C145.609 285.606 145.152 285.245 144.671 285.123C144.263 284.916 143.455 284.621 142.247 284.236L139.65 284.309C137.265 284.011 135.277 284.355 133.687 285.339C133.802 287.066 133.61 290.708 133.113 296.266L132.947 304.443L132.64 308.724C133.189 308.684 134.573 308.148 136.79 307.118L138.344 305.584C138.653 305.482 139.576 304.546 141.114 302.777C141.496 302.591 141.901 302.167 142.33 301.504L143.413 300.005C143.654 300.066 144.059 299.642 144.629 298.732L145.383 297.612ZM133.821 330.053L134.245 332.861C134.605 333.545 134.673 334.565 134.448 335.922C134.223 337.28 134.252 338.303 134.534 338.992C134.623 340.327 134.714 341.109 134.808 341.338C135.514 341.287 136.552 340.895 137.923 340.163C139.372 339.425 140.29 339.003 140.677 338.895C141.064 338.788 141.553 338.437 142.144 337.841C144.038 336.676 145.999 335.349 148.029 333.859L150.571 331.187C152.664 328.272 154.1 326.155 154.879 324.836L155.444 322.665C156.318 320.392 155.199 318.384 152.087 316.641C151.397 315.745 150.061 315.212 148.079 315.043L147.961 315.051C145.163 314.468 143.534 314.273 143.073 314.464L137.974 316.023C137.064 316.563 136.216 316.862 135.432 316.92C134.726 316.971 133.918 316.676 133.008 316.033L133.344 319.321C132.894 320.853 132.834 322.316 133.163 323.712C133.571 325.102 133.79 327.215 133.821 330.053ZM140.393 350.63L139.333 350.707C138.559 350.922 137.022 350.917 134.72 350.692C130.677 350.358 127.377 349.339 124.82 347.634C124.072 347.058 123.194 346.294 122.184 345.343C121.248 344.308 120.767 343.594 120.741 343.201C120.715 342.809 120.681 342.299 120.639 341.671C120.676 341.037 120.595 340.412 120.396 339.796L120.334 338.854C120.067 338.4 120.051 337.573 120.287 336.372C120.517 335.093 120.528 334.067 120.319 333.294C120.094 332.285 119.903 331.195 119.747 330.023C119.49 329.726 119.551 328.854 119.928 327.407C119.851 316.764 119.778 310.933 119.711 309.912L120.064 306.337C119.515 304.011 119.458 301.964 119.893 300.197L119.72 297.607C119.569 296.513 119.671 293.311 120.028 288C119.651 287.082 118.511 285.943 116.608 284.584C116.19 284.221 115.758 283.661 115.314 282.905C114.864 282.07 114.932 280.724 115.518 278.867C115.947 278.204 117.252 277.083 119.434 275.503C119.559 275.02 121.618 273.962 125.608 272.327L127.782 271.221C128.854 270.747 131.04 270.429 134.341 270.265C136.161 270.368 137.636 270.614 138.765 271.004C142.897 272.672 146.733 274.638 150.274 276.902C151.325 277.298 152.073 277.874 152.517 278.63C153.992 279.468 155.388 280.903 156.706 282.936C158.097 284.885 158.889 286.128 159.082 286.666C159.642 289.149 159.45 292.199 158.508 295.818C158.079 297.664 155.741 301.622 151.493 307.693C152.293 307.87 153.671 308.439 155.627 309.4C155.883 309.697 156.743 310.185 158.208 310.866C158.38 311.09 158.595 311.351 158.851 311.647C159.186 311.938 159.439 312.196 159.612 312.42L160.592 312.939L161.887 314.619L163.754 316.019C164.59 316.747 165.275 317.564 165.809 318.471C167.059 319.484 167.746 320.34 167.872 321.041L168.256 323.26C168.235 324.13 167.246 327.042 165.289 331.997C164.541 333.788 163.531 335.203 162.26 336.243L160.636 338.492C160.207 339.155 159.356 340.006 158.085 341.046C156.893 342.08 155.894 343.061 155.088 343.988C154.706 344.174 154.102 344.573 153.275 345.186C152.527 345.793 151.356 346.55 149.76 347.456C148.243 348.356 147.216 348.905 146.677 349.102C145.139 349.689 143.044 350.198 140.393 350.63ZM212.171 308.908L212.438 311.137C212.453 311.372 212.853 313.828 213.637 318.503L213.731 319.915C213.856 321.799 214.358 324.602 215.236 328.323C215.345 329.972 216.359 332.776 218.278 336.737C218.686 336.943 218.997 337.473 219.212 338.324L219.172 339.511C219.355 339.891 219.188 340.338 218.67 340.849C218.707 341.398 217.979 341.728 216.489 341.838C214.998 341.947 214.062 342.095 213.68 342.281C213.298 342.467 212.665 342.434 211.782 342.184C211.478 342.364 210.516 342.119 208.895 341.45C208.178 341.345 207.582 340.679 207.106 339.452L206.016 337.284C205.922 335.871 205.446 334.644 204.589 333.603C204.563 333.21 204.319 332.518 203.859 331.527C203.478 330.529 203.206 329.997 203.044 329.93C202.468 333.128 201.649 335.633 200.587 337.446C200.613 337.839 200.409 338.327 199.975 338.911L198.947 341.235C198.957 341.392 198.633 341.85 197.974 342.608C197.571 343.663 196.545 344.251 194.898 344.372C193.407 344.482 191.577 344.222 189.406 343.593C188.852 343.555 187.73 343.283 186.041 342.776C185.575 342.889 184.822 342.826 183.781 342.587C182.814 342.264 182.252 342.108 182.095 342.12C181.844 341.901 181.268 341.549 180.369 341.063L178.227 339.091C178.144 339.018 177.963 338.677 177.686 338.066C177.482 337.371 177.412 336.903 177.475 336.662C177.532 336.342 177.503 335.91 177.388 335.367C177.273 334.823 177.276 334.271 177.397 333.71C177.292 332.14 177.334 330.401 177.523 328.495C177.429 328.265 177.371 327.993 177.35 327.679C177.33 327.365 177.447 326.765 177.704 325.878C177.599 325.492 177.542 325.22 177.531 325.063L177.814 320.428C177.741 319.329 177.728 318.541 177.776 318.064L177.658 316.298C177.716 315.978 177.726 315.544 177.69 314.994L177.903 309.299C177.845 308.436 177.848 307.884 177.911 307.642L177.832 306.465C177.979 306.297 178.016 305.663 177.942 304.564L178.782 301.189L179.512 299.716C179.57 299.396 179.978 299.011 180.736 298.561C181.939 297.684 183.718 297.158 186.071 296.985C187.023 297.073 188.069 297.39 189.209 297.938C189.44 297.842 189.999 297.958 190.888 298.287C192.504 298.878 192.716 300.874 191.523 304.275C191.35 306.417 191.266 307.528 191.271 307.606C190.999 308.257 190.876 308.779 190.902 309.171C190.599 311.718 190.452 313.07 190.462 313.227C190.755 312.889 190.669 313.369 190.203 314.665L190.022 319.056C189.598 320.981 189.501 323.078 189.731 325.349L189.362 326.914C189.466 327.301 189.508 328.52 189.487 330.572C189.659 330.796 189.756 331.065 189.777 331.379L189.957 332.313C189.894 332.554 189.949 332.786 190.122 333.01C190.289 333.156 190.726 333.203 191.432 333.151C192.211 333.014 192.865 332.769 193.393 332.415C194.403 331 195.057 329.571 195.356 328.129C195.649 326.609 195.787 325.731 195.772 325.496C196.881 322.022 197.574 320 197.852 319.427C198.103 317.279 198.608 314.796 199.367 311.98C199.184 311.599 199.132 310.814 199.211 309.625L200.326 303.272C200.953 302.043 201.259 301.311 201.244 301.075C201.223 300.761 201.621 299.628 202.437 297.675C202.416 297.361 202.61 296.715 203.018 295.739C203.509 294.835 204.435 293.939 205.795 293.05L206.148 293.024C207.864 292.74 209.37 292.866 210.667 293.401C210.845 293.704 210.96 294.247 211.012 295.032C211.221 295.806 211.472 297.207 211.765 299.236L211.843 300.414L211.544 303.039C212.303 304.955 212.511 306.911 212.171 308.908ZM226.794 305.703C226.747 304.997 226.614 304.178 226.394 303.248L226.339 302.424C226.381 301.869 226.303 301.283 226.104 300.666C226.052 299.881 226.084 299.169 226.199 298.53C226.094 296.96 226.223 295.925 226.584 295.425C226.558 295.033 227.047 294.09 228.051 292.596C228.344 292.259 228.899 291.705 229.715 290.935C230.944 290.451 231.791 290.152 232.257 290.039C232.55 289.702 233.617 289.741 235.458 290.158C236.247 290.179 237.482 290.364 239.161 290.714C239.72 290.83 240.468 291.407 241.404 292.442C241.268 292.767 241.072 293.965 240.815 296.035C240.632 298.02 240.621 299.638 240.783 300.888C241.228 300.461 241.997 299.576 243.09 298.234C244.183 296.891 244.767 296.178 244.84 296.094C246.817 295.002 248.773 294.187 250.709 293.651C253.517 293.207 255.374 293.268 256.279 293.832C257 294.016 257.573 294.329 257.997 294.771C258.745 295.347 259.406 296.403 259.981 297.938C260.551 299.395 260.574 300.339 260.051 300.772C259.607 301.199 258.058 301.629 255.407 302.06C255.25 302.072 254.721 302.426 253.822 303.123L248.023 308.401C246.81 309.121 245.983 309.734 245.544 310.24L243.582 314.525C243.514 314.688 243.503 315.714 243.55 317.604C243.597 319.493 243.688 320.867 243.824 321.725C243.954 322.504 244.129 325.133 244.348 329.613L244.685 334.676C244.867 337.423 244.932 338.996 244.88 339.394C244.833 339.871 244.571 340.679 244.095 341.818C243.886 342.228 243.154 342.479 241.898 342.572C238.99 345.073 237.021 345.099 235.991 342.651L234.398 341.822C233.75 341.554 233.331 341.19 233.143 340.731C232.458 339.914 232.11 339.426 232.1 339.27L231.52 337.656L230.72 336.295C230.479 336.234 230.184 334.757 229.834 331.864C229.479 328.893 229.28 327.093 229.238 326.465C229.191 325.759 229.063 325.019 228.854 324.246C229.367 323.656 229.54 322.696 229.373 321.368C229.284 320.033 229.138 319.019 228.934 318.324C228.725 317.55 228.693 317.08 228.84 316.911C228.981 316.664 228.869 315.568 228.503 313.623C228.247 313.326 228.168 312.74 228.268 311.865L226.794 305.703ZM295.628 298.984C295.435 296.079 294.907 294.659 294.044 294.722C293.646 294.673 293.136 294.71 292.514 294.835L291.046 295.889L291.172 295.998C290.659 296.588 290.05 297.501 289.344 298.736L289.461 298.727C288.776 300.276 288.255 301.34 287.899 301.918C287.183 302.996 286.837 303.732 286.864 304.124C286.89 304.517 286.772 305.117 286.51 305.925C286.327 306.727 286.131 307.333 285.921 307.743C285.791 308.147 285.553 309.308 285.207 311.227C284.856 313.067 284.67 314.421 284.649 315.29L284.273 316.738L283.636 323.174C283.448 323.898 283.531 325.153 283.887 326.941C284.32 328.724 284.723 330.035 285.094 330.875C286.056 332.303 286.971 333.025 287.84 333.04C288.358 332.528 288.771 332.222 289.079 332.12C289.168 332.272 289.448 332.33 289.919 332.295C290.39 332.261 290.735 332.117 290.954 331.864L290.837 331.873C292.511 329.778 293.701 328.113 294.407 326.878C295.113 325.642 295.462 323.763 295.452 321.24L295.625 318.506C295.939 317.3 296.043 315.912 295.939 314.342L295.972 305.939C296.234 303.948 296.208 302.372 295.894 301.212L295.855 300.623L295.628 298.984ZM272.224 254.68C273.662 254.969 274.499 255.696 274.734 256.862C275.163 259.749 275.345 261.904 275.282 263.329L275.666 269.098C275.629 269.732 275.989 273.373 276.747 280.022C277.577 286.587 278.335 292.052 279.019 296.419L279.38 296.511C280.108 294.407 280.576 293.149 280.785 292.74C281.073 292.324 281.314 291.794 281.507 291.148C281.779 290.497 282.295 289.947 283.053 289.497C283.043 289.34 283.403 288.84 284.136 287.997C284.941 287.07 285.493 286.478 285.792 286.219C286.168 285.955 286.432 285.777 286.584 285.687C286.809 285.513 287.112 285.333 287.494 285.147C287.954 284.956 288.221 284.818 288.294 284.733C289.372 284.339 290.028 284.133 290.264 284.115L291.762 283.532C291.919 283.52 292.155 283.503 292.468 283.48C292.855 283.373 293.342 283.573 293.928 284.082C294.33 284.211 294.877 284.131 295.567 283.844C296.979 283.74 298.295 283.958 299.513 284.5C300.732 285.041 301.605 285.726 302.133 286.555C302.735 287.3 303.527 287.951 304.51 288.51C304.61 288.818 304.871 289.193 305.295 289.635C305.791 289.993 306.191 290.674 306.495 291.677C307.504 294.994 308.206 299.636 308.603 305.601C308.451 305.691 308.391 305.972 308.422 306.443C308.532 306.908 308.579 307.614 308.563 308.562C308.621 309.426 308.667 310.132 308.704 310.681L308.445 313.895L308.625 316.603C308.483 316.85 308.418 317.644 308.428 318.984L307.188 325.228L305.853 330.058C305.869 330.294 305.529 331.108 304.833 332.5C303.755 332.894 302.897 333.628 302.259 334.7C300.141 336.039 298.783 336.967 298.187 337.485C296.649 339.254 294.703 340.225 292.35 340.399C292.036 340.422 290.948 340.659 289.086 341.112C286.293 341.791 283.921 341.689 281.97 340.807C281.029 340.876 280.364 340.373 279.978 339.297C278.356 338.628 277.47 338.338 277.318 338.428C276.858 338.62 276.379 338.537 275.882 338.179C275.464 337.815 275.158 337.364 274.965 336.826C274.327 336.716 273.861 336.237 273.569 335.391C273.401 334.062 273.009 332.908 272.392 331.928C271.775 330.948 271.472 329.945 271.483 328.919C271.572 327.887 271.42 326.794 271.028 325.639C270.709 324.401 270.602 323.383 270.707 322.587C270.231 321.36 269.865 320.006 269.609 318.526L269.586 318.173C269.628 317.618 269.675 317.141 269.727 316.743L269.602 314.859C269.655 313.278 269.626 312.254 269.516 311.789C269.249 311.336 269.082 310.599 269.014 309.578C268.847 309.433 268.756 309.242 268.74 309.007L268.528 307.603C267.775 306.948 267.783 305.883 268.552 304.406C268.835 303.912 268.746 302.578 268.286 300.403L266.216 292.392C266.295 292.386 266.318 292.147 266.287 291.676L266.319 290.373C265.31 287.055 264.693 283.709 264.469 280.334C264.375 280.104 264.307 279.675 264.265 279.047L264.132 277.046C263.881 275.644 263.774 274.035 263.811 272.218C263.926 270.395 263.84 268.509 263.553 266.558C263.24 264.215 263.381 262.193 263.978 260.493C264.061 259.382 264.323 258.574 264.762 258.069C265.197 257.484 265.945 256.877 267.007 256.247C268.743 255.094 270.482 254.572 272.224 254.68ZM332.414 284.328C333.659 285.262 334.381 286.628 334.579 288.428C334.856 290.222 334.9 291.48 334.712 292.204C334.602 292.922 334.45 295.379 334.256 299.573C334.057 300.14 333.989 300.894 334.051 301.836L333.571 312.402C333.848 316.562 334.049 318.992 334.174 319.693C334.3 320.394 334.493 320.932 334.754 321.307C334.854 321.615 335.222 321.824 335.86 321.935C336.499 322.046 336.92 321.857 337.124 321.369C337.077 320.663 337.276 320.096 337.72 319.669C337.71 319.512 338.147 318.375 339.031 316.26C339.01 315.946 339.099 315.505 339.298 314.938C339.575 314.366 339.74 313.88 339.792 313.482C339.918 313 340.015 312.677 340.083 312.514C340.381 312.256 340.716 311.364 341.087 309.838C341.03 308.974 341.441 308.037 342.32 307.026C342.304 306.79 342.634 305.819 343.309 304.113L343.473 303.036C344.687 299.95 345.216 297.821 345.059 296.649L345.264 290.836L346.128 286.04C347.059 283.448 348.527 281.802 350.53 281.102C351.445 280.64 352.711 280.705 354.327 281.296C356.022 281.881 357.088 282.513 357.528 283.19C358.04 283.784 358.317 284.394 358.359 285.022L358.5 287.142L358.468 288.445L358.891 294.803C359.204 299.513 359.52 303.079 359.839 305.5C360.779 312.53 362.554 318.473 365.163 323.329C366.428 325.76 366.085 327.718 364.134 329.202C363.009 330.074 361.663 330.567 360.094 330.683C357.426 330.879 355.515 329.994 354.359 328.028C353.758 327.284 353.177 326.262 352.618 324.962C352.058 323.662 351.687 322.822 351.504 322.441C350.929 320.906 350.558 320.065 350.39 319.92L349.3 317.752C348.311 321.848 346.467 326.716 343.767 332.357C343.207 333.424 342.166 334.368 340.644 335.19C339.211 334.98 337.652 334.66 335.968 334.232C334.922 333.915 333.199 333.489 330.798 332.956C329.219 332.914 328.301 332.745 328.045 332.449C327.783 332.074 327.572 331.852 327.409 331.786C327.321 331.634 327.274 331.519 327.268 331.441C327.007 331.066 326.602 330.898 326.052 330.939C325.692 330.255 325.182 329.701 324.523 329.277C324.518 329.198 324.374 328.814 324.091 328.125C323.192 327.639 322.376 326.043 321.644 323.336C321.226 322.972 320.745 320.484 320.202 315.87C319.732 311.172 319.497 308.231 319.497 307.048C319.576 305.859 319.589 304.872 319.537 304.087C319.359 303.785 319.352 303.075 319.514 301.959C319.676 300.843 319.705 300.091 319.601 299.705L319.743 294.725L320.402 290.417C320.324 289.24 320.635 287.994 321.336 286.681C322.037 285.367 322.537 284.581 322.835 284.322C323.107 283.671 324.172 283.08 326.029 282.549C326.426 282.599 326.941 282.64 327.574 282.672C328.202 282.626 328.795 282.661 329.355 282.778C329.909 282.816 330.929 283.333 332.414 284.328ZM382.884 251.983L385.787 251.178C387.686 251.275 389.132 251.681 390.125 252.397C391.198 253.107 391.728 253.975 391.718 255.001C390.807 259.091 390.145 263.359 389.731 267.807L389.848 269.573C389.78 273.285 389.557 276.457 389.18 279.087L388.14 306.14L388.68 314.264C389.014 320.471 389.693 325.351 390.718 328.904L391.047 330.299C391.031 331.247 390.367 331.927 389.054 332.339C387.825 332.824 387.011 333.041 386.614 332.991C386.216 332.942 385.777 332.856 385.296 332.733L382.04 331.79C380.743 331.254 379.294 330.217 377.694 328.678C376.695 327.884 376.261 327.285 376.392 326.881C376.214 326.579 375.585 323.036 374.503 316.253C374.566 314.829 374.566 313.646 374.504 312.704L374.371 310.702C374.266 309.132 374.23 307.991 374.261 307.279C374.251 307.122 374.267 306.174 374.309 304.436C374.404 299.933 374.477 297.482 374.53 297.084L374.404 295.2C374.097 290.569 374.241 286.812 374.838 283.928C374.639 283.312 374.521 282.729 374.485 282.18C375.17 280.631 375.241 277.549 374.698 272.935C375.719 268.128 376.295 264.93 376.426 263.343C376.552 261.677 376.821 260.395 377.234 259.497C377.14 258.084 377.674 256.625 378.836 255.12C379.992 253.536 381.341 252.491 382.884 251.983ZM397.949 256.436C400.595 255.925 403.252 255.572 405.92 255.376C408.43 255.191 411.736 255.106 415.836 255.12C419.937 255.134 422.147 255.168 422.466 255.224C425.583 255.862 427.118 256.42 427.071 256.896C427.097 257.289 427.091 257.802 427.055 258.436C427.091 258.985 427.075 259.341 427.007 259.504C426.803 259.992 425.849 260.457 424.144 260.898C422.208 261.435 420.692 261.743 419.593 261.824L417.71 261.963C417.553 261.974 417.206 262.079 416.667 262.276C416.128 262.473 415.231 262.618 413.976 262.711L411.269 262.91C410.647 263.034 409.438 263.241 407.644 263.531C406.818 264.144 405.887 264.37 404.851 264.21C404.396 264.48 403.198 264.844 401.258 265.302C399.391 265.676 397.712 265.918 396.221 266.028C394.809 266.132 393.282 265.692 391.64 264.708L390.047 263.879L389.294 261.45C389.211 260.194 389.253 259.047 389.42 258.009C390.419 257.62 391.819 257.32 393.618 257.109C395.339 256.904 396.743 256.682 397.831 256.444L397.949 256.436ZM403.153 284.922C402.997 282.567 404.37 281.283 407.273 281.069L409.038 280.939C409.195 280.928 410.476 281.228 412.882 281.84C413.217 282.131 413.708 282.41 414.357 282.678L416.914 285.566L417.603 295.927C417.676 297.026 417.731 298.442 417.767 300.174C417.693 303.808 418.348 311.293 419.733 322.628C419.983 324.03 419.562 325.401 418.469 326.744C417.135 326.842 416.259 326.709 415.841 326.346C415.516 326.212 414.808 326.224 413.715 326.384C412.621 326.543 411.317 325.89 409.8 324.424C408.916 324.173 408.406 323.619 408.271 322.761L407.212 321.065C406.788 320.622 406.427 319.939 406.129 319.014C405.826 318.011 405.298 314.225 404.546 307.654C404.468 306.477 404.487 305.568 404.602 304.929L404.414 302.103C404.435 301.234 404.409 299.658 404.336 297.376C404.258 295.016 404.251 293.123 404.313 291.699C404.021 289.669 403.851 288.302 403.804 287.595C403.757 286.889 403.54 285.998 403.153 284.922ZM436.822 283.392L436.869 282.323C435.211 282.288 434.026 282.256 433.315 282.23C432.677 282.119 431.607 282.04 430.106 281.993C428.605 281.945 427.413 281.796 426.529 281.546C424.845 281.118 423.809 279.774 423.423 277.515C423.031 275.178 423.68 273.671 425.369 272.994C426.912 272.486 427.997 272.209 428.625 272.163C429.253 272.117 430.424 271.952 432.14 271.668C432.971 271.133 434.13 270.772 435.615 270.584L437.349 269.983C437.355 270.062 437.663 269.96 438.275 269.679L438.699 267.163C438.616 265.907 438.885 264.625 439.508 263.317C439.471 262.768 439.88 261.2 440.733 258.613C440.712 258.299 441.266 255.97 442.397 251.628C442.685 251.212 443.801 250.223 445.747 248.66C446.961 247.94 448.755 248.242 451.129 249.566C452.421 250.023 453.333 250.705 453.867 251.612C453.427 252.118 453.265 253.234 453.38 254.961C453.338 255.516 452.982 258.461 452.312 263.795L452.531 267.092C453.164 267.124 454.196 267.245 455.63 267.455C457.141 267.66 458.93 267.883 460.996 268.126C464.971 268.622 467.546 270.01 468.723 272.29C469.23 273.988 469.232 275.21 468.73 275.957C468.228 276.704 466.928 277.312 464.831 277.782C463.11 277.987 460.837 278.194 458.013 278.402C455.267 278.604 453.24 278.95 451.932 279.441C451.869 280.865 451.864 281.97 451.916 282.755L451.916 284.529C451.953 285.079 451.793 288.009 451.436 293.32C451.012 294.061 450.863 297.74 450.987 304.357L451.558 312.952C451.652 314.364 451.859 315.69 452.178 316.929C452.371 318.65 452.648 319.852 453.009 320.535C453.056 321.242 453.351 322.719 453.894 324.966C453.104 327.312 451.611 328.565 449.414 328.727C447.296 328.883 445.361 328.236 443.609 326.788L442.189 324.999C441.912 324.388 441.687 323.971 441.515 323.747C441.421 323.518 441.324 323.249 441.225 322.94C440.571 321.411 440.074 320.461 439.734 320.092C439.222 319.499 438.955 319.045 438.934 318.731C438.913 318.417 438.887 318.025 438.856 317.554C438.61 316.231 438.339 315.107 438.041 314.183C437.622 313.819 437.337 312.499 437.186 310.223C437.067 306.051 436.907 303.657 436.709 303.041C436.928 302.788 436.869 301.293 436.529 298.558L436.71 295.941C436.689 295.627 436.768 294.439 436.946 292.375C436.768 292.072 436.674 291.251 436.664 289.911C436.648 288.492 436.701 287.502 436.821 286.941C436.915 285.988 436.916 284.805 436.822 283.392ZM492.465 283.203L492.379 281.908C492.321 281.045 492.254 280.616 492.175 280.622L491.453 280.438C490.904 280.478 490.467 280.432 490.143 280.298C489.604 280.495 489.189 280.762 488.896 281.099C487.917 281.802 487.261 282.6 486.926 283.492L484.681 288.863C483.666 291.383 483.208 294.572 483.307 298.43C485.404 299.143 486.892 298.994 487.771 297.983C488.289 297.472 488.723 296.888 489.074 296.231C489.194 295.67 489.474 295.136 489.913 294.631C490.348 294.047 490.732 292.717 491.067 290.642C492.192 288.587 492.658 286.107 492.465 283.203ZM503.048 284.081L503.134 285.376C503.296 290.176 502.171 294.597 499.759 298.639C499.403 299.218 498.896 299.886 498.236 300.644L495.82 303.425C495.307 304.015 494.635 304.577 493.803 305.112L491.261 306.008C491.015 305.869 490.338 305.761 489.229 305.685C488.387 306.062 487.636 306.038 486.978 305.614C486.899 305.619 486.457 305.494 485.652 305.238C484.925 304.976 484.009 304.846 482.906 304.848C483.146 306.093 483.316 307.46 483.415 308.952L485.187 314.264C486.16 315.849 487.054 316.848 487.87 317.261C488.759 317.59 489.677 317.759 490.624 317.769C491.644 317.694 492.381 317.521 492.836 317.251C493.37 316.975 494.248 316.555 495.472 315.992L497.748 314.642C499.333 313.578 500.761 313.71 502.031 315.036C502.706 315.697 503.043 316.618 503.043 317.802C503.038 318.906 502.635 319.961 501.834 320.967C501.437 322.1 500.288 323.21 498.39 324.296C498.311 324.302 497.969 324.485 497.362 324.845C493.946 326.832 490.039 327.356 485.641 326.417L483.334 325.522C483.099 325.539 482.856 325.439 482.605 325.221C481.647 325.055 480.588 324.541 479.427 323.68C478.266 322.819 477.43 322.091 476.917 321.498C476.483 320.899 476.18 320.487 476.007 320.263C475.835 320.04 475.526 319.55 475.082 318.793C473.581 316.38 472.441 314.058 471.662 311.828L470.729 308.465C470.865 308.14 470.845 307.234 470.667 305.749L470.542 303.865C469.752 302.661 469.993 299.764 471.265 295.174C472.124 289.117 472.911 285.549 473.628 284.47L474.954 281.297C474.949 281.218 475.381 280.595 476.249 279.427C476.38 279.023 477.23 278.171 478.799 276.873C479.082 276.379 479.534 276.069 480.157 275.945C480.45 275.608 480.941 275.295 481.632 275.008C482.223 274.412 483.141 273.99 484.386 273.741C485.536 273.262 487.333 273.011 489.776 272.989C495.377 273.05 499.339 275.125 501.66 279.214L502.656 281.744C502.682 282.136 502.831 282.598 503.103 283.131C503.035 283.293 503.017 283.61 503.048 284.081ZM535.812 311.96C535.995 311.158 536.529 310.29 537.413 309.358C538.37 308.341 539.359 307.795 540.379 307.72C541.399 307.645 542.29 307.421 543.054 307.05C543.818 306.678 544.513 306.469 545.141 306.423C545.847 306.371 546.919 306.489 548.358 306.778C549.869 306.982 550.863 307.106 551.339 307.15C551.893 307.188 552.33 307.235 552.649 307.29C553.046 307.34 553.418 307.589 553.763 308.037C554.186 308.479 554.422 309.053 554.469 309.759C553.641 315.105 551.98 318.58 549.485 320.183L545.994 321.031C544.974 321.106 543.8 320.641 542.472 319.634C539.945 319.583 538.651 319.087 538.588 318.145C538.578 317.988 538.107 317.431 537.176 316.474C536.246 315.517 535.759 314.725 535.718 314.097C535.676 313.469 535.707 312.756 535.812 311.96ZM550.762 232.654L550.29 241.562C550.242 245.588 549.995 253.139 549.549 264.215C549.103 275.29 549.013 282.83 549.279 286.833C549.54 290.758 549.944 293.291 550.493 294.434C549.73 295.989 548.681 296.816 547.347 296.914C546.641 296.966 546.047 296.93 545.566 296.808C545.085 296.686 544.766 296.63 544.609 296.642L544.138 296.676L543.66 296.593C541.667 293.9 540.481 291.463 540.099 289.283C538.551 286.163 537.67 284.177 537.456 283.325C537.315 282.389 537.116 281.772 536.86 281.476C536.406 278.196 536.171 276.439 536.155 276.203L535.826 271.258C536.01 269.273 536.031 267.221 535.89 265.101L535.773 263.335C535.668 261.765 535.831 259.466 536.26 256.437C536.684 253.329 536.831 250.795 536.701 248.832C536.565 246.791 536.997 244.393 537.996 241.638C539.074 238.877 539.773 236.932 540.092 235.805C540.49 234.671 540.751 233.863 540.877 233.381C541.002 232.898 541.17 232.452 541.379 232.042C541.73 231.385 542.219 231.034 542.846 230.988C543.992 230.43 544.8 230.134 545.271 230.1C548.801 229.84 550.632 230.691 550.762 232.654Z" fill="#D8307B"/>
</g>
</g>
</g>
<path d="M67.3809 346.286C67.7262 346.952 68.0714 347.617 68.4167 348.283C68.9921 348.241 69.5559 348.177 70.1083 348.09C72.3178 347.744 74.3432 347.042 76.1844 345.986C82.6287 342.288 88.8223 338.108 94.7654 333.443C95.1899 333.11 95.6131 332.775 96.035 332.436C95.6898 331.771 95.3445 331.105 94.9993 330.439C94.5006 330.629 94.0032 330.822 93.5071 331.017C86.5616 333.748 79.8667 336.962 73.4224 340.659C71.5812 341.716 69.9241 343.127 68.4511 344.894C68.0829 345.336 67.7262 345.8 67.3809 346.286Z" fill="#DED592"/>
<path d="M32.3534 299.669C32.2198 300.407 32.0861 301.145 31.9525 301.883C32.7867 302.305 33.6254 302.703 34.4685 303.076C37.841 304.567 41.2848 305.665 44.7999 306.369C57.1026 308.834 69.5024 310.764 81.9991 312.157C82.8917 312.257 83.7848 312.354 84.6785 312.448C84.8121 311.71 84.9457 310.972 85.0794 310.234C84.2154 309.976 83.351 309.72 82.4861 309.468C70.3774 305.931 58.1717 302.93 45.869 300.465C42.3539 299.761 38.7676 299.45 35.11 299.533C34.1956 299.554 33.2767 299.599 32.3534 299.669Z" fill="#DED592"/>
<path d="M60.4971 260.842C60.0397 261.437 59.5823 262.031 59.1248 262.626C59.4118 263.198 59.7139 263.75 60.0313 264.283C61.301 266.414 62.8145 268.227 64.5721 269.724C70.7234 274.962 77.2068 279.769 84.0223 284.144C84.5091 284.457 84.9976 284.767 85.4878 285.075C85.9452 284.481 86.4026 283.886 86.8601 283.292C86.4715 282.852 86.0812 282.414 85.6893 281.978C80.202 275.877 74.3827 270.207 68.2313 264.969C66.4738 263.472 64.4723 262.293 62.2269 261.43C61.6655 261.214 61.0889 261.018 60.4971 260.842Z" fill="#DED592"/>
<path d="M597.064 188.992C596.512 188.484 595.96 187.976 595.408 187.468C594.785 187.827 594.18 188.203 593.594 188.596C591.247 190.167 589.196 192.009 587.438 194.122C581.287 201.517 575.536 209.281 570.186 217.413C569.804 217.994 569.423 218.577 569.045 219.162C569.597 219.67 570.149 220.178 570.701 220.686C571.202 220.214 571.7 219.74 572.197 219.265C579.149 212.607 585.701 205.58 591.853 198.185C593.61 196.072 595.073 193.689 596.242 191.034C596.535 190.37 596.808 189.69 597.064 188.992Z" fill="#D8307B"/>
<path d="M611.021 236.488C610.899 235.748 610.777 235.008 610.654 234.268C610.132 234.109 609.615 233.975 609.101 233.866C607.045 233.429 605.055 233.386 603.13 233.739C596.393 234.971 589.745 236.741 583.185 239.048C582.716 239.212 582.248 239.38 581.781 239.55C581.903 240.29 582.025 241.03 582.148 241.77C582.643 241.764 583.137 241.756 583.631 241.744C590.546 241.586 597.372 240.891 604.109 239.658C606.034 239.306 607.893 238.559 609.688 237.418C610.137 237.133 610.581 236.823 611.021 236.488Z" fill="#D8307B"/>
<path d="M90.6831 172.302C88.4412 172.675 86.3857 172.845 84.5167 172.814C82.6886 172.732 81.1249 172.555 79.8256 172.281C78.5262 172.008 77.524 171.748 76.819 171.503C76.1098 171.213 75.7553 171.068 75.7553 171.068C75.7553 171.068 75.661 171.032 75.4724 170.961C75.2798 170.845 75.0379 170.688 74.7468 170.49C74.5009 170.288 74.2508 170.041 73.9966 169.749C73.7875 169.452 73.6419 169.102 73.5598 168.701C73.5229 168.295 73.5986 167.876 73.787 167.446C74.0124 166.921 74.2971 166.55 74.6414 166.331C74.9815 166.067 75.3319 165.917 75.6926 165.879C76.0492 165.796 76.3443 165.787 76.5779 165.854C76.8525 165.871 76.9899 165.879 76.9899 165.879C78.8139 166.417 80.6871 166.744 82.6094 166.861C84.5318 166.978 86.3229 166.904 87.9828 166.638C89.6386 166.327 91.0014 165.797 92.071 165.046C93.1856 164.291 93.8228 163.29 93.9823 162.042C94.105 160.89 93.8568 159.913 93.2377 159.112C92.6596 158.261 91.8192 157.529 90.7165 156.916C89.6138 156.303 88.3595 155.774 86.9535 155.329C85.5885 154.834 84.2277 154.385 82.8709 153.98C81.9814 153.709 81.012 153.31 79.9626 152.782C78.9132 152.254 77.8965 151.586 76.9127 150.778C75.9739 149.965 75.1396 149.05 74.4098 148.033C73.6758 146.971 73.1612 145.817 72.8658 144.572C72.5663 143.281 72.5537 141.893 72.828 140.405C73.1473 138.913 73.8909 137.331 75.0587 135.658C76.2223 133.941 77.4885 132.6 78.8573 131.636C80.267 130.622 81.6993 129.856 83.1543 129.338C84.6092 128.821 85.9904 128.493 87.2979 128.356C88.6504 128.213 89.8534 128.178 90.9068 128.25C92.0053 128.317 92.8558 128.41 93.4583 128.529C94.1059 128.643 94.4297 128.7 94.4297 128.7C94.4297 128.7 94.5466 128.733 94.7802 128.8C95.0589 128.862 95.3889 128.987 95.7701 129.174C96.1514 129.362 96.5367 129.595 96.9261 129.873C97.3115 130.106 97.6149 130.439 97.8363 130.872C98.0536 131.259 98.1418 131.728 98.101 132.279C98.0191 132.881 97.7897 133.36 97.4127 133.719C97.0767 134.028 96.6853 134.229 96.2386 134.321C95.8369 134.409 95.4783 134.469 95.1627 134.503C94.843 134.491 94.6831 134.485 94.6831 134.485C92.3672 134.044 90.2339 134.109 88.283 134.679C86.328 135.203 84.6518 136.04 83.2544 137.19C81.9021 138.335 80.9023 139.602 80.255 140.992C79.6487 142.332 79.5793 143.57 80.0468 144.706C80.4077 145.67 81.119 146.484 82.1808 147.148C83.2835 147.761 84.5644 148.333 86.0237 148.863C87.524 149.344 89.0734 149.864 90.672 150.426C92.2665 150.942 93.7586 151.583 95.1483 152.348C96.5338 153.068 97.6653 153.998 98.5427 155.136C99.7316 156.698 100.486 158.236 100.806 159.752C101.126 161.269 101.1 162.73 100.727 164.136C100.35 165.498 99.6888 166.729 98.7423 167.832C97.7957 168.934 96.6298 169.877 95.2446 170.661C93.8594 171.444 92.3389 171.991 90.6831 172.302ZM119.225 169.507C118.59 169.529 117.901 169.464 117.159 169.314C116.462 169.16 115.753 168.87 115.032 168.444C114.306 167.973 113.613 167.363 112.953 166.612C112.293 165.86 111.707 164.919 111.194 163.788L103.123 141.87C103.123 141.87 103.088 141.737 103.019 141.471C102.99 141.155 103.002 140.789 103.055 140.373C103.108 139.957 103.278 139.575 103.565 139.226C103.893 138.827 104.413 138.544 105.127 138.378C105.836 138.167 106.448 138.148 106.965 138.321C107.522 138.445 107.973 138.648 108.318 138.931C108.707 139.209 109.004 139.474 109.209 139.726C109.41 139.933 109.511 140.036 109.511 140.036L114.321 153.136C115.179 155.553 115.954 157.568 116.647 159.181C117.336 160.75 117.928 161.759 118.424 162.208C118.916 162.111 119.529 161.34 120.262 159.895C120.991 158.406 121.774 156.25 122.609 153.427C123.113 151.46 123.514 149.617 123.813 147.9C124.153 146.132 124.39 144.489 124.525 142.971C124.705 141.448 124.801 140.002 124.813 138.633C124.813 138.633 124.823 138.495 124.844 138.22C124.905 137.894 125.032 137.539 125.224 137.154C125.417 136.769 125.728 136.44 126.159 136.167C126.63 135.844 127.298 135.683 128.163 135.683C129.028 135.683 129.682 135.865 130.124 136.229C130.608 136.543 130.961 136.916 131.182 137.348C131.403 137.781 131.531 138.178 131.563 138.539C131.592 138.855 131.607 139.013 131.607 139.013C131.689 140.417 131.661 141.856 131.522 143.329C131.428 144.798 131.264 146.25 131.031 147.688C130.797 149.125 130.537 150.52 130.251 151.872C129.96 153.179 129.639 154.398 129.286 155.528C128.402 158.812 127.394 161.493 126.263 163.572C125.174 165.601 124.014 167.113 122.785 168.108C121.596 169.053 120.41 169.52 119.225 169.507ZM152.72 166.739C149.699 166.555 147.211 165.974 145.256 164.994C143.341 163.965 141.816 162.712 140.681 161.236C139.586 159.71 138.774 158.041 138.245 156.228C137.761 154.41 137.437 152.598 137.272 150.792C137.042 148.765 137.218 146.696 137.8 144.584C138.422 142.422 139.399 140.405 140.731 138.533C142.108 136.656 143.812 135.132 145.845 133.961C147.923 132.786 150.277 132.151 152.909 132.057C155.585 131.958 157.797 132.249 159.543 132.932C161.285 133.569 162.662 134.45 163.675 135.574C164.733 136.694 165.481 137.914 165.92 139.235C166.404 140.552 166.724 141.817 166.88 143.031C167.04 145.293 166.604 147.253 165.572 148.912C164.58 150.52 162.892 151.723 160.506 152.521C159.797 152.732 158.883 152.942 157.764 153.151C156.686 153.309 155.516 153.455 154.254 153.588C153.037 153.716 151.817 153.821 150.596 153.904C149.42 153.982 148.311 154.053 147.27 154.117C146.274 154.176 145.46 154.239 144.829 154.305C144.239 154.322 143.944 154.33 143.944 154.33C144.194 155.58 144.713 156.779 145.5 157.926C146.283 159.029 147.341 159.898 148.673 160.533C150.05 161.163 151.715 161.444 153.665 161.375C155.338 161.245 156.891 161.059 158.326 160.817C159.76 160.575 161.01 160.307 162.076 160.013C163.186 159.714 164.029 159.466 164.602 159.269C165.176 159.072 165.463 158.973 165.463 158.973C165.463 158.973 165.576 158.961 165.801 158.938C166.068 158.864 166.361 158.833 166.68 158.845C167.045 158.852 167.418 158.95 167.799 159.138C168.177 159.28 168.5 159.588 168.771 160.061C169.083 160.484 169.21 160.881 169.153 161.252C169.136 161.572 169.05 161.878 168.895 162.168C168.735 162.412 168.571 162.612 168.403 162.766C168.276 162.871 168.212 162.923 168.212 162.923C168.212 162.923 167.753 163.131 166.835 163.546C165.917 163.962 164.686 164.433 163.141 164.96C161.645 165.528 159.981 165.999 158.149 166.374C156.317 166.748 154.507 166.87 152.72 166.739ZM143.562 150.131L156.804 148.603C156.804 148.603 156.96 148.563 157.272 148.485C157.579 148.362 157.952 148.208 158.39 148.026C158.874 147.838 159.325 147.54 159.743 147.131C160.206 146.718 160.568 146.201 160.831 145.581C161.089 144.916 161.175 144.109 161.088 143.161C160.944 141.581 160.555 140.3 159.919 139.319C159.284 138.337 158.314 137.687 157.011 137.368C155.703 137.005 153.928 137.009 151.687 137.381C150.117 137.637 148.764 138.281 147.629 139.312C146.535 140.293 145.64 141.458 144.943 142.807C144.292 144.152 143.845 145.498 143.604 146.845C143.358 148.147 143.344 149.242 143.562 150.131ZM177.254 163.408C176.619 163.43 176.066 163.351 175.594 163.173C175.164 162.944 174.799 162.686 174.5 162.399C174.196 162.066 173.967 161.794 173.811 161.583C173.7 161.366 173.645 161.258 173.645 161.258C173.152 158.849 172.734 156.5 172.389 154.211C172.089 151.918 171.837 149.643 171.631 147.386C171.422 145.083 171.274 142.706 171.187 140.254C171.1 137.802 171.046 135.21 171.025 132.477C171.025 132.477 171.038 132.362 171.062 132.131C171.083 131.856 171.169 131.55 171.32 131.215C171.517 130.876 171.808 130.572 172.193 130.303C172.619 129.985 173.218 129.808 173.988 129.773C174.755 129.692 175.378 129.786 175.857 130.055C176.337 130.324 176.687 130.674 176.909 131.107C177.171 131.489 177.339 131.836 177.413 132.148C177.532 132.454 177.592 132.607 177.592 132.607C177.662 134.879 177.75 137.103 177.857 139.279C177.964 141.456 178.121 143.673 178.326 145.93C178.532 148.188 178.768 150.533 179.035 152.966C179.343 155.349 179.708 157.863 180.131 160.508C180.131 160.508 180.121 160.646 180.1 160.921C180.08 161.197 179.973 161.527 179.781 161.912C179.629 162.247 179.363 162.571 178.982 162.885C178.601 163.198 178.025 163.373 177.254 163.408ZM173.969 126.562C172.752 126.689 171.772 126.428 171.03 125.777C170.333 125.121 169.937 124.273 169.843 123.235C169.724 121.926 169.953 120.944 170.531 120.291C171.149 119.588 172.068 119.173 173.285 119.045C174.502 118.917 175.461 119.203 176.162 119.904C176.859 120.56 177.255 121.408 177.349 122.446C177.411 123.123 177.356 123.767 177.184 124.378C177.053 124.938 176.731 125.405 176.219 125.778C175.707 126.151 174.957 126.412 173.969 126.562ZM211.639 158.359C211.028 158.651 210.426 158.782 209.832 158.754C209.282 158.72 208.793 158.589 208.362 158.361C207.932 158.133 207.596 157.94 207.354 157.784C207.108 157.581 206.985 157.48 206.985 157.48C205.632 156.119 204.363 154.93 203.178 153.915C202.035 152.85 200.928 151.941 199.858 151.188C198.788 150.434 197.751 149.791 196.746 149.259C195.783 148.676 194.781 148.166 193.74 147.729C192.698 147.291 191.614 146.881 190.487 146.498L189.041 139.608C191.594 139.157 193.854 138.487 195.822 137.596C197.83 136.656 199.594 135.536 201.114 134.237C202.635 132.938 203.917 131.527 204.962 130.004C204.962 130.004 205.044 129.904 205.208 129.705C205.417 129.5 205.693 129.289 206.038 129.071C206.427 128.847 206.847 128.712 207.298 128.665C207.79 128.567 208.366 128.644 209.026 128.893C209.641 129.148 210.061 129.514 210.286 129.991C210.553 130.419 210.686 130.884 210.686 131.385C210.727 131.837 210.717 132.225 210.656 132.551C210.594 132.876 210.564 133.039 210.564 133.039C209.97 134.514 209.115 135.88 208.001 137.137C206.931 138.389 205.692 139.522 204.282 140.536C202.872 141.55 201.358 142.416 199.739 143.133C198.12 143.85 196.442 144.414 194.704 144.824L194.224 142.55C196.167 142.893 198.042 143.493 199.85 144.352C201.654 145.165 203.336 146.15 204.898 147.308C206.501 148.416 207.954 149.63 209.258 150.952C210.607 152.268 211.818 153.577 212.893 154.877C212.893 154.877 212.927 155.01 212.997 155.276C213.108 155.492 213.159 155.806 213.151 156.217C213.184 156.578 213.082 156.954 212.844 157.343C212.651 157.728 212.25 158.067 211.639 158.359ZM190.607 162.073C189.886 162.149 189.265 162.078 188.744 161.859C188.22 161.595 187.806 161.297 187.502 160.964C187.195 160.586 186.961 160.269 186.801 160.012C186.686 159.751 186.629 159.62 186.629 159.62C186.272 157.698 185.911 155.479 185.545 152.965C185.221 150.402 184.909 147.722 184.609 144.928C184.35 142.084 184.114 139.237 183.9 136.388C183.686 133.539 183.526 130.776 183.419 128.098C183.311 125.42 183.247 122.966 183.226 120.734C183.226 120.734 183.239 120.619 183.263 120.389C183.329 120.108 183.437 119.801 183.589 119.466C183.785 119.126 184.099 118.82 184.529 118.546C184.96 118.273 185.54 118.144 186.269 118.158C187.04 118.123 187.665 118.24 188.144 118.508C188.624 118.777 188.972 119.105 189.19 119.492C189.452 119.875 189.62 120.222 189.694 120.533C189.813 120.84 189.873 120.993 189.873 120.993C189.898 122.768 189.976 124.879 190.108 127.327C190.239 129.774 190.41 132.4 190.62 135.203C190.87 137.957 191.125 140.756 191.384 143.601C191.643 146.445 191.918 149.219 192.21 151.923C192.542 154.577 192.877 157.003 193.213 159.201C193.213 159.201 193.203 159.339 193.183 159.615C193.158 159.845 193.072 160.151 192.925 160.531C192.773 160.866 192.507 161.19 192.126 161.503C191.79 161.812 191.284 162.002 190.607 162.073ZM222.757 158.626C222.122 158.647 221.569 158.568 221.097 158.39C220.667 158.162 220.302 157.904 220.003 157.616C219.7 157.284 219.47 157.011 219.314 156.8C219.203 156.584 219.148 156.476 219.148 156.476C218.656 154.066 218.237 151.717 217.892 149.429C217.593 147.136 217.34 144.861 217.135 142.603C216.925 140.301 216.777 137.924 216.69 135.471C216.604 133.019 216.55 130.427 216.529 127.694C216.529 127.694 216.541 127.579 216.565 127.349C216.586 127.073 216.672 126.768 216.823 126.433C217.02 126.093 217.311 125.789 217.696 125.521C218.122 125.202 218.721 125.026 219.491 124.99C220.258 124.91 220.881 125.004 221.36 125.272C221.84 125.541 222.191 125.892 222.412 126.324C222.674 126.707 222.843 127.054 222.916 127.365C223.035 127.671 223.095 127.825 223.095 127.825C223.165 130.096 223.254 132.32 223.361 134.497C223.468 136.673 223.624 138.89 223.829 141.148C224.035 143.405 224.271 145.75 224.538 148.183C224.846 150.567 225.211 153.081 225.634 155.725C225.634 155.725 225.624 155.863 225.604 156.139C225.583 156.414 225.477 156.745 225.284 157.13C225.132 157.465 224.866 157.789 224.485 158.102C224.104 158.416 223.528 158.59 222.757 158.626ZM219.472 121.779C218.255 121.907 217.275 121.645 216.533 120.994C215.836 120.338 215.441 119.491 215.346 118.452C215.227 117.143 215.456 116.162 216.034 115.509C216.653 114.805 217.571 114.39 218.788 114.262C220.005 114.134 220.965 114.421 221.666 115.122C222.363 115.778 222.758 116.625 222.853 117.663C222.914 118.341 222.859 118.984 222.687 119.595C222.556 120.156 222.235 120.623 221.722 120.996C221.21 121.368 220.46 121.63 219.472 121.779ZM252.688 142.49C252.003 142.471 251.444 142.325 251.009 142.051C250.571 141.733 250.247 141.425 250.038 141.128C249.874 140.826 249.792 140.675 249.792 140.675C249.467 138.111 249.108 135.414 248.714 132.584C248.365 129.749 248.028 126.799 247.703 123.734C247.42 120.619 247.175 117.431 246.97 114.171C246.97 114.171 246.98 114.034 247 113.758C247.021 113.482 247.107 113.177 247.258 112.842C247.451 112.457 247.785 112.126 248.26 111.848C248.732 111.525 249.373 111.321 250.184 111.236C250.955 111.2 251.601 111.292 252.121 111.511C252.642 111.729 253.033 112.03 253.296 112.413C253.599 112.745 253.814 113.11 253.941 113.507C254.065 113.859 254.138 114.17 254.163 114.441C254.233 114.707 254.268 114.84 254.268 114.84C254.301 117.207 254.342 119.413 254.392 121.459C254.483 123.455 254.549 125.43 254.59 127.386C254.677 129.337 254.749 131.38 254.807 133.516C254.861 135.607 254.914 137.949 254.968 140.541C254.968 140.541 254.915 140.706 254.808 141.037C254.743 141.317 254.544 141.634 254.212 141.988C253.921 142.292 253.413 142.459 252.688 142.49ZM253.81 155.567C253.088 155.643 252.422 155.576 251.811 155.367C251.197 155.113 250.686 154.756 250.28 154.297C249.915 153.789 249.704 153.218 249.647 152.586C249.589 151.954 249.696 151.373 249.966 150.844C250.277 150.264 250.712 149.785 251.269 149.408C251.826 149.03 252.466 148.803 253.187 148.727C253.954 148.647 254.644 148.734 255.259 148.988C255.919 149.238 256.431 149.617 256.796 150.126C257.202 150.584 257.434 151.13 257.491 151.762C257.561 152.529 257.441 153.203 257.129 153.783C256.859 154.312 256.418 154.723 255.808 155.015C255.242 155.303 254.576 155.487 253.81 155.567Z" fill="black"/>
<path d="M158.987 219.08C158.219 219.094 157.577 219.027 157.061 218.88C156.546 218.733 156.144 218.541 155.854 218.303C155.562 218.032 155.336 217.755 155.176 217.47C155.013 217.152 154.905 216.878 154.85 216.649C154.533 214.27 154.224 211.973 153.922 209.759C153.653 207.542 153.403 205.34 153.17 203.152C152.971 200.961 152.813 198.682 152.698 196.315C152.583 193.947 152.521 191.424 152.511 188.744C152.568 188.268 152.814 187.84 153.248 187.46C153.712 187.042 154.408 186.785 155.336 186.687L171.601 185.028C171.601 185.028 171.702 185.034 171.904 185.046C172.103 185.026 172.355 185.033 172.659 185.068C172.997 185.099 173.322 185.182 173.636 185.317C173.982 185.448 174.269 185.653 174.495 185.93C174.754 186.205 174.905 186.574 174.947 187.039C174.992 187.537 174.913 187.948 174.708 188.271C174.533 188.557 174.302 188.783 174.016 188.947C173.76 189.074 173.517 189.167 173.288 189.224C173.056 189.249 172.94 189.261 172.94 189.261L157.421 190.289C157.446 192.029 157.497 193.699 157.576 195.299C157.655 196.9 157.748 198.482 157.857 200.046C157.996 201.573 158.137 203.116 158.279 204.676C158.451 206.2 158.629 207.79 158.813 209.446C159.031 211.099 159.274 212.85 159.542 214.698C160.79 214.433 161.955 214.177 163.037 213.929C164.119 213.681 165.119 213.459 166.038 213.262C166.987 213.028 167.904 212.797 168.787 212.57C169.67 212.344 170.551 212.1 171.431 211.84C172.344 211.577 173.272 211.295 174.216 210.994C174.216 210.994 174.298 210.986 174.464 210.968C174.66 210.914 174.892 210.89 175.16 210.895C175.429 210.9 175.718 210.954 176.028 211.055C176.336 211.124 176.616 211.262 176.869 211.47C177.156 211.674 177.349 211.955 177.448 212.314C177.626 212.798 177.682 213.227 177.616 213.603C177.546 213.945 177.42 214.21 177.236 214.397C177.052 214.584 176.881 214.719 176.721 214.803C176.561 214.887 176.481 214.929 176.481 214.929C174.92 215.428 173.423 215.887 171.988 216.306C170.587 216.721 169.182 217.104 167.775 217.453C166.368 217.802 164.941 218.119 163.494 218.405C162.078 218.655 160.575 218.879 158.987 219.08ZM155.087 204.911L154.49 200.55L168.313 198.544C168.313 198.544 168.414 198.551 168.616 198.563C168.818 198.575 169.073 198.615 169.38 198.684C169.685 198.719 169.995 198.82 170.311 198.988C170.625 199.123 170.895 199.329 171.121 199.607C171.344 199.851 171.475 200.189 171.514 200.621C171.557 201.086 171.459 201.481 171.221 201.808C171.013 202.098 170.749 202.327 170.43 202.494C170.144 202.659 169.869 202.771 169.607 202.832C169.375 202.857 169.259 202.869 169.259 202.869L155.087 204.911ZM190.167 212.284C192.15 212.008 193.348 211.564 193.761 210.951C194.204 210.301 193.946 209.49 192.987 208.519C192.58 208.092 191.988 207.652 191.21 207.197C190.433 206.743 189.586 206.262 188.669 205.755C187.783 205.212 186.894 204.635 186.002 204.025C185.14 203.378 184.371 202.655 183.696 201.854C183.021 201.054 182.553 200.148 182.294 199.136C181.971 197.796 182.058 196.547 182.555 195.389C183.082 194.194 184.03 193.206 185.398 192.426C186.763 191.612 188.541 191.107 190.732 190.91C192.92 190.68 195.513 190.86 198.512 191.449C198.512 191.449 198.566 191.494 198.675 191.583C198.814 191.636 198.957 191.738 199.104 191.89C199.252 192.042 199.386 192.229 199.507 192.451C199.628 192.673 199.668 192.937 199.629 193.242C199.587 193.515 199.491 193.743 199.34 193.926C199.22 194.073 199.064 194.206 198.874 194.327C198.715 194.411 198.569 194.46 198.436 194.474C198.303 194.488 198.237 194.495 198.237 194.495C198.237 194.495 198.053 194.497 197.686 194.502C197.318 194.507 196.834 194.525 196.234 194.554C195.635 194.584 194.97 194.637 194.241 194.713C193.509 194.757 192.764 194.852 192.008 194.998C191.281 195.108 190.593 195.264 189.942 195.467C189.291 195.669 188.762 195.926 188.355 196.237C187.795 196.698 187.42 197.173 187.23 197.662C187.073 198.148 187.104 198.664 187.321 199.211C187.568 199.721 188.035 200.259 188.723 200.823C189.443 201.384 190.415 201.952 191.639 202.528C193.387 203.349 194.876 204.265 196.106 205.275C197.336 206.286 198.204 207.367 198.71 208.52C199.214 209.641 199.27 210.808 198.878 212.022C198.616 212.82 198.011 213.521 197.062 214.123C196.112 214.725 194.966 215.181 193.622 215.49C192.275 215.766 190.846 215.882 189.336 215.84C187.823 215.764 186.309 215.488 184.793 215.01C183.31 214.529 181.988 213.797 180.828 212.813C180.828 212.813 180.773 212.768 180.665 212.679C180.59 212.587 180.511 212.461 180.43 212.302C180.345 212.11 180.294 211.914 180.276 211.715C180.288 211.479 180.368 211.253 180.515 211.036C180.693 210.783 180.896 210.627 181.126 210.57C181.385 210.476 181.632 210.433 181.867 210.442C182.102 210.45 182.289 210.481 182.427 210.534C182.596 210.549 182.681 210.557 182.681 210.557C182.681 210.557 182.892 210.669 183.314 210.893C183.736 211.117 184.295 211.376 184.991 211.672C185.717 211.93 186.522 212.131 187.405 212.273C188.321 212.411 189.242 212.415 190.167 212.284ZM229.059 212.318C226.838 212.183 225.008 211.755 223.571 211.035C222.163 210.278 221.042 209.357 220.207 208.272C219.402 207.15 218.805 205.923 218.416 204.589C218.06 203.253 217.821 201.92 217.701 200.593C217.531 199.102 217.661 197.581 218.088 196.028C218.546 194.438 219.264 192.955 220.244 191.578C221.256 190.198 222.509 189.078 224.004 188.217C225.532 187.353 227.263 186.886 229.198 186.817C231.166 186.744 232.792 186.958 234.076 187.46C235.357 187.929 236.37 188.576 237.114 189.403C237.892 190.226 238.442 191.123 238.765 192.095C239.121 193.063 239.356 193.993 239.471 194.886C239.589 196.549 239.268 197.991 238.509 199.21C237.78 200.393 236.538 201.277 234.784 201.864C234.263 202.019 233.591 202.173 232.768 202.327C231.976 202.444 231.115 202.551 230.187 202.648C229.292 202.742 228.395 202.82 227.497 202.881C226.632 202.938 225.817 202.99 225.052 203.037C224.319 203.081 223.721 203.127 223.257 203.176C222.823 203.188 222.606 203.194 222.606 203.194C222.79 204.113 223.172 204.994 223.75 205.838C224.326 206.649 225.104 207.288 226.083 207.755C227.096 208.218 228.32 208.425 229.754 208.374C230.984 208.279 232.126 208.142 233.181 207.964C234.236 207.786 235.155 207.589 235.938 207.373C236.755 207.153 237.374 206.97 237.796 206.825C238.218 206.681 238.429 206.608 238.429 206.608C238.429 206.608 238.512 206.599 238.678 206.582C238.874 206.528 239.089 206.505 239.324 206.514C239.592 206.519 239.867 206.591 240.147 206.729C240.424 206.834 240.662 207.06 240.861 207.408C241.091 207.719 241.184 208.011 241.142 208.283C241.13 208.519 241.067 208.744 240.952 208.957C240.835 209.137 240.714 209.284 240.591 209.397C240.497 209.474 240.451 209.512 240.451 209.512C240.451 209.512 240.113 209.665 239.438 209.971C238.763 210.276 237.857 210.623 236.721 211.01C235.621 211.428 234.398 211.774 233.051 212.05C231.704 212.325 230.373 212.415 229.059 212.318ZM222.325 200.107L232.062 198.983C232.062 198.983 232.177 198.954 232.406 198.896C232.632 198.805 232.906 198.693 233.229 198.558C233.584 198.42 233.916 198.201 234.223 197.901C234.563 197.597 234.83 197.217 235.023 196.761C235.213 196.272 235.276 195.679 235.212 194.982C235.107 193.82 234.82 192.878 234.353 192.156C233.885 191.435 233.173 190.957 232.214 190.722C231.253 190.455 229.948 190.458 228.299 190.732C227.145 190.92 226.151 191.393 225.316 192.151C224.511 192.872 223.853 193.729 223.341 194.721C222.862 195.71 222.534 196.7 222.356 197.69C222.176 198.648 222.165 199.453 222.325 200.107ZM254.122 205.562C256.105 205.287 257.302 204.842 257.715 204.229C258.158 203.579 257.9 202.769 256.942 201.797C256.535 201.37 255.942 200.93 255.165 200.476C254.387 200.021 253.54 199.54 252.624 199.033C251.738 198.49 250.848 197.913 249.956 197.303C249.094 196.656 248.325 195.933 247.65 195.132C246.975 194.332 246.508 193.426 246.248 192.414C245.925 191.074 246.012 189.825 246.51 188.667C247.037 187.472 247.984 186.484 249.352 185.704C250.717 184.89 252.495 184.385 254.686 184.188C256.874 183.958 259.468 184.138 262.467 184.727C262.467 184.727 262.521 184.772 262.629 184.861C262.768 184.914 262.911 185.016 263.059 185.168C263.207 185.32 263.341 185.507 263.461 185.729C263.582 185.951 263.623 186.215 263.584 186.52C263.541 186.793 263.445 187.021 263.294 187.204C263.174 187.351 263.019 187.485 262.829 187.605C262.669 187.689 262.523 187.738 262.39 187.752C262.258 187.766 262.191 187.773 262.191 187.773C262.191 187.773 262.008 187.775 261.64 187.78C261.272 187.785 260.789 187.803 260.189 187.832C259.589 187.862 258.925 187.915 258.195 187.992C257.463 188.035 256.719 188.13 255.962 188.277C255.236 188.386 254.547 188.543 253.896 188.745C253.245 188.947 252.716 189.204 252.31 189.515C251.749 189.976 251.374 190.451 251.184 190.94C251.028 191.426 251.058 191.942 251.275 192.489C251.522 192.999 251.99 193.537 252.677 194.101C253.397 194.662 254.369 195.23 255.593 195.806C257.341 196.627 258.83 197.543 260.06 198.553C261.29 199.564 262.158 200.645 262.665 201.799C263.168 202.919 263.224 204.086 262.833 205.3C262.571 206.098 261.965 206.799 261.016 207.401C260.067 208.004 258.92 208.459 257.576 208.768C256.229 209.044 254.801 209.16 253.291 209.118C251.778 209.042 250.263 208.766 248.747 208.288C247.264 207.808 245.943 207.075 244.782 206.091C244.782 206.091 244.728 206.047 244.619 205.957C244.544 205.865 244.466 205.739 244.384 205.58C244.3 205.388 244.248 205.192 244.23 204.993C244.242 204.757 244.322 204.531 244.47 204.314C244.647 204.061 244.851 203.906 245.08 203.848C245.339 203.754 245.586 203.711 245.821 203.72C246.056 203.729 246.243 203.759 246.382 203.812C246.551 203.827 246.635 203.835 246.635 203.835C246.635 203.835 246.846 203.947 247.268 204.171C247.69 204.395 248.249 204.654 248.945 204.95C249.672 205.209 250.476 205.409 251.359 205.551C252.276 205.689 253.196 205.693 254.122 205.562ZM288.641 204.598C288.062 204.491 287.61 204.304 287.284 204.037C286.959 203.77 286.733 203.492 286.606 203.203C286.476 202.882 286.384 202.607 286.33 202.378C286.306 202.112 286.294 201.979 286.294 201.979C286.405 199.153 286.306 196.599 285.998 194.319C285.72 192.002 285.158 190.235 284.311 189.017C283.536 187.858 282.677 187.061 281.733 186.624C280.787 186.153 279.836 186.002 278.881 186.169C277.922 186.304 276.99 186.72 276.083 187.419C275.022 188.267 274.225 189.256 273.692 190.384C273.159 191.513 272.814 192.689 272.658 193.912C272.534 195.131 272.507 196.307 272.577 197.439C272.707 198.498 272.811 199.459 272.89 200.322C272.968 201.185 273.054 201.947 273.148 202.607C273.241 203.268 273.324 203.812 273.397 204.24C273.397 204.24 273.386 204.308 273.365 204.444C273.377 204.577 273.359 204.747 273.311 204.953C273.263 205.159 273.13 205.357 272.913 205.547C272.73 205.734 272.407 205.869 271.946 205.951C271.551 206.026 271.196 205.979 270.879 205.811C270.563 205.644 270.296 205.471 270.079 205.292C269.895 205.111 269.803 205.02 269.803 205.02C269.384 204.461 269.132 203.901 269.048 203.34C268.996 202.775 268.956 202.143 268.925 201.442C268.928 200.738 268.801 199.897 268.545 198.918C268.367 197.697 268.232 196.589 268.142 195.593C268.081 194.56 268.077 193.589 268.128 192.678C268.176 191.735 268.313 190.849 268.538 190.021C268.764 189.193 269.108 188.369 269.569 187.55C270.153 186.617 270.894 185.752 271.792 184.954C272.69 184.156 273.683 183.482 274.771 182.932C275.892 182.378 277.063 182.004 278.283 181.808C279.504 181.613 280.745 181.65 282.008 181.92C282.87 182.198 283.71 182.595 284.526 183.113C285.373 183.593 286.165 184.197 286.9 184.924C287.636 185.651 288.302 186.536 288.899 187.58C289.493 188.59 290.021 189.791 290.482 191.184C290.974 192.908 291.286 194.685 291.419 196.514C291.552 198.344 291.551 200.354 291.416 202.547C291.416 202.547 291.393 202.667 291.348 202.906C291.303 203.145 291.193 203.408 291.018 203.695C290.877 203.978 290.614 204.223 290.232 204.431C289.846 204.606 289.316 204.661 288.641 204.598ZM271.865 207.266C271.398 207.282 270.991 207.224 270.644 207.093C270.328 206.925 270.06 206.735 269.84 206.524C269.616 206.279 269.448 206.079 269.333 205.924C269.252 205.765 269.211 205.685 269.211 205.685C268.849 203.914 268.541 202.186 268.288 200.504C268.067 198.818 267.881 197.145 267.73 195.485C267.576 193.792 267.467 192.044 267.404 190.241C267.34 188.438 267.3 186.532 267.285 184.523C267.285 184.523 267.294 184.438 267.312 184.268C267.327 184.066 267.39 183.841 267.502 183.595C267.646 183.345 267.86 183.122 268.143 182.924C268.457 182.69 268.897 182.56 269.463 182.534C270.027 182.475 270.485 182.544 270.838 182.742C271.19 182.939 271.448 183.197 271.611 183.515C271.804 183.796 271.928 184.051 271.982 184.28C272.069 184.506 272.113 184.618 272.113 184.618C272.165 186.289 272.23 187.924 272.309 189.524C272.387 191.125 272.502 192.755 272.653 194.415C272.804 196.075 272.978 197.799 273.174 199.588C273.401 201.341 273.669 203.189 273.98 205.134C273.98 205.134 273.973 205.235 273.958 205.438C273.943 205.64 273.864 205.883 273.723 206.166C273.611 206.412 273.415 206.651 273.135 206.881C272.855 207.112 272.432 207.24 271.865 207.266ZM306.741 202.696C306.162 202.589 305.71 202.402 305.385 202.135C305.059 201.867 304.833 201.589 304.706 201.301C304.577 200.979 304.485 200.704 304.43 200.475C304.406 200.21 304.394 200.077 304.394 200.077C304.505 197.25 304.406 194.697 304.098 192.417C303.821 190.1 303.242 188.334 302.361 187.12C301.587 185.961 300.727 185.163 299.784 184.726C298.871 184.253 297.936 184.099 296.981 184.267C296.023 184.401 295.09 184.818 294.183 185.516C293.122 186.365 292.326 187.354 291.792 188.482C291.259 189.61 290.914 190.786 290.758 192.009C290.601 193.232 290.575 194.408 290.677 195.537C290.807 196.595 290.889 197.492 290.922 198.225C290.952 198.926 290.974 199.527 290.986 200.028C290.998 200.53 290.995 201.05 290.977 201.588C290.977 201.588 290.986 201.687 291.004 201.887C291.019 202.053 291.004 202.255 290.959 202.495C290.914 202.734 290.801 202.964 290.62 203.184C290.44 203.404 290.152 203.551 289.757 203.626C289.329 203.705 288.958 203.677 288.645 203.542C288.362 203.371 288.144 203.193 287.994 203.007C287.843 202.822 287.768 202.729 287.768 202.729C287.563 202.315 287.418 201.828 287.333 201.267C287.249 200.706 287.173 200.061 287.107 199.33C287.04 198.6 286.968 197.803 286.889 196.94C286.714 195.752 286.563 194.645 286.437 193.62C286.343 192.59 286.305 191.623 286.323 190.716C286.341 189.809 286.446 188.943 286.639 188.119C286.865 187.291 287.208 186.467 287.669 185.648C288.253 184.715 288.994 183.85 289.892 183.051C290.79 182.253 291.783 181.579 292.871 181.029C293.959 180.479 295.113 180.106 296.334 179.911C297.587 179.712 298.846 179.748 300.108 180.017C300.97 180.295 301.81 180.693 302.627 181.21C303.441 181.694 304.215 182.3 304.951 183.027C305.719 183.751 306.402 184.634 306.999 185.677C307.593 186.687 308.104 187.89 308.533 189.286C309.057 191.007 309.37 192.784 309.47 194.617C309.603 196.446 309.601 198.457 309.466 200.65C309.466 200.65 309.444 200.77 309.399 201.009C309.387 201.245 309.293 201.506 309.119 201.792C308.944 202.079 308.665 202.326 308.282 202.534C307.93 202.705 307.416 202.759 306.741 202.696ZM321.521 201.595C320.659 201.317 319.805 200.937 318.958 200.457C318.141 199.939 317.365 199.317 316.629 198.59C315.894 197.863 315.211 196.98 314.581 195.94C313.984 194.897 313.473 193.694 313.047 192.331C312.553 190.573 312.237 188.763 312.101 186.9C311.965 185.038 311.966 183.027 312.104 180.868C312.104 180.868 312.11 180.75 312.122 180.514C312.168 180.275 312.278 180.012 312.452 179.725C312.627 179.439 312.889 179.193 313.239 178.989C313.621 178.781 314.152 178.725 314.83 178.822C315.406 178.895 315.858 179.082 316.186 179.383C316.512 179.65 316.739 179.945 316.869 180.266C316.999 180.588 317.074 180.865 317.095 181.097C317.15 181.326 317.177 181.44 317.177 181.44C317.069 184.3 317.17 186.887 317.481 189.2C317.789 191.48 318.368 193.246 319.219 194.497C319.797 195.341 320.411 196.014 321.059 196.516C321.737 196.981 322.433 197.276 323.148 197.402C323.859 197.495 324.542 197.457 325.195 197.287C325.883 197.115 326.524 196.813 327.121 196.381C328.028 195.683 328.701 194.808 329.141 193.756C329.578 192.671 329.841 191.521 329.932 190.305C330.052 189.052 330.009 187.85 329.804 186.699C329.605 185.614 329.34 184.536 329.008 183.465C328.706 182.357 328.415 181.365 328.135 180.49C327.854 179.614 327.643 178.95 327.501 178.495C327.501 178.495 327.494 178.412 327.479 178.246C327.497 178.077 327.546 177.887 327.628 177.678C327.706 177.435 327.854 177.218 328.071 177.028C328.318 176.801 328.687 176.628 329.178 176.509C329.669 176.391 330.108 176.428 330.494 176.622C330.909 176.78 331.227 176.964 331.448 177.176C331.698 177.35 331.823 177.438 331.823 177.438C332.468 178.275 333.081 179.316 333.663 180.562C334.245 181.808 334.735 183.147 335.134 184.58C335.562 186.345 335.791 187.946 335.822 189.384C335.849 190.789 335.7 192.095 335.375 193.302C335.08 194.472 334.615 195.61 333.979 196.716C333.395 197.649 332.65 198.481 331.746 199.213C330.842 199.945 329.825 200.538 328.695 200.992C327.598 201.442 326.435 201.715 325.206 201.811C324.012 201.936 322.784 201.864 321.521 201.595Z" fill="black"/>
<path d="M384.516 111.361L385.041 112.785L385.042 112.785L384.516 111.361ZM361.255 119.71L360.73 118.286L360.73 118.286L361.255 119.71ZM346.195 135.377L344.751 134.97L347.639 135.784L346.195 135.377ZM340.599 113.888L341.731 112.931L341.731 112.931L340.599 113.888ZM324.423 94.4232L323.289 95.3774L323.291 95.3803L324.423 94.4232ZM320.883 80.7483L322.326 81.1554L322.327 81.1552L320.883 80.7483ZM357.506 90.9711L358.95 91.378L359.146 90.6093L357.702 90.2024L356.258 89.7954L356.063 90.5642L357.506 90.9711ZM357.506 90.9711L358.95 91.378C360.835 83.9787 369.755 79.5967 379.33 82.2956L379.7 80.842L380.07 79.3884C369.429 76.3889 358.48 81.0749 356.063 90.5642L357.506 90.9711ZM379.7 80.842L379.33 82.2956C388.893 84.991 394.526 93.5638 392.639 100.973L394.082 101.38L395.526 101.787C397.941 92.3082 390.725 82.3914 380.07 79.3884L379.7 80.842ZM394.082 101.38L392.639 100.973C391.618 104.981 388.499 108.318 383.991 109.937L384.516 111.361L385.042 112.785C390.337 110.883 394.233 106.864 395.526 101.787L394.082 101.38ZM384.516 111.361L383.991 109.937L360.73 118.286L361.255 119.71L361.78 121.134L385.041 112.785L384.516 111.361ZM361.255 119.71L360.73 118.286C356.721 119.726 353.201 121.954 350.433 124.833L351.512 125.898L352.591 126.963C355.025 124.431 358.156 122.435 361.781 121.134L361.255 119.71ZM351.512 125.898L350.433 124.833C347.663 127.714 345.718 131.173 344.751 134.97L346.195 135.377L347.639 135.784C348.474 132.504 350.158 129.494 352.591 126.963L351.512 125.898ZM346.195 135.377L347.639 135.784C348.606 131.987 348.566 127.969 347.537 124.017L346.096 124.372L344.655 124.727C345.559 128.197 345.587 131.69 344.751 134.97L346.195 135.377ZM346.096 124.372L347.537 124.017C346.508 120.067 344.519 116.286 341.731 112.931L340.599 113.888L339.468 114.845C341.988 117.878 343.751 121.254 344.655 124.727L346.096 124.372ZM340.599 113.888L341.731 112.931L325.555 93.4661L324.423 94.4232L323.291 95.3803L339.468 114.845L340.599 113.888ZM324.423 94.4232L325.557 93.469C324.007 91.5947 322.931 89.5199 322.381 87.3964L320.94 87.7491L319.499 88.1018C320.172 90.7011 321.473 93.1811 323.289 95.3774L324.423 94.4232ZM320.94 87.7491L322.381 87.3964C321.832 85.2751 321.819 83.1481 322.326 81.1554L320.883 80.7483L319.439 80.3411C318.8 82.8495 318.825 85.5002 319.499 88.1018L320.94 87.7491ZM320.883 80.7483L322.327 81.1552C324.214 73.7456 333.167 69.2841 342.73 71.9795L343.1 70.5259L343.471 69.0724C332.817 66.0694 321.854 70.8622 319.439 80.3413L320.883 80.7483ZM343.1 70.5259L342.73 71.9795C352.305 74.6784 357.947 83.1648 356.063 90.5642L357.506 90.9711L358.95 91.378C361.367 81.8887 354.113 72.0719 343.471 69.0724L343.1 70.5259Z" fill="#D8307B"/>
</g>
<defs>
<filter id="filter0_d_26_55" x="0" y="0" width="706" height="655" filterUnits="userSpaceOnUse" color-interpolation-filters="sRGB">
<feFlood flood-opacity="0" result="BackgroundImageFix"/>
<feColorMatrix in="SourceAlpha" type="matrix" values="0 0 0 0 0 0 0 0 0 0 0 0 0 0 0 0 0 0 127 0" result="hardAlpha"/>
<feOffset dy="4"/>
<feGaussianBlur stdDeviation="2"/>
<feComposite in2="hardAlpha" operator="out"/>
<feColorMatrix type="matrix" values="0 0 0 0 0 0 0 0 0 0 0 0 0 0 0 0 0 0 0.25 0"/>
<feBlend mode="normal" in2="BackgroundImageFix" result="effect1_dropShadow_26_55"/>
<feBlend mode="normal" in="SourceGraphic" in2="effect1_dropShadow_26_55" result="shape"/>
</filter>
<filter id="filter1_d_26_55" x="61" y="159" width="578.518" height="264.417" filterUnits="userSpaceOnUse" color-interpolation-filters="sRGB">
<feFlood flood-opacity="0" result="BackgroundImageFix"/>
<feColorMatrix in="SourceAlpha" type="matrix" values="0 0 0 0 0 0 0 0 0 0 0 0 0 0 0 0 0 0 127 0" result="hardAlpha"/>
<feOffset dy="4"/>
<feGaussianBlur stdDeviation="23"/>
<feComposite in2="hardAlpha" operator="out"/>
<feColorMatrix type="matrix" values="0 0 0 0 0 0 0 0 0 0 0 0 0 0 0 0 0 0 0.25 0"/>
<feBlend mode="normal" in2="BackgroundImageFix" result="effect1_dropShadow_26_55"/>
<feBlend mode="normal" in="SourceGraphic" in2="effect1_dropShadow_26_55" result="shape"/>
</filter>
<filter id="filter2_d_26_55" x="105.324" y="225.71" width="459.449" height="141.53" filterUnits="userSpaceOnUse" color-interpolation-filters="sRGB">
<feFlood flood-opacity="0" result="BackgroundImageFix"/>
<feColorMatrix in="SourceAlpha" type="matrix" values="0 0 0 0 0 0 0 0 0 0 0 0 0 0 0 0 0 0 127 0" result="hardAlpha"/>
<feOffset dy="4"/>
<feGaussianBlur stdDeviation="4"/>
<feComposite in2="hardAlpha" operator="out"/>
<feColorMatrix type="matrix" values="0 0 0 0 0 0 0 0 0 0 0 0 0 0 0 0 0 0 0.1 0"/>
<feBlend mode="normal" in2="BackgroundImageFix" result="effect1_dropShadow_26_55"/>
<feBlend mode="normal" in="SourceGraphic" in2="effect1_dropShadow_26_55" result="shape"/>
</filter>
</defs>
</svg>
