<svg width="313" height="115" viewBox="0 0 313 115" fill="none" xmlns="http://www.w3.org/2000/svg">
<path d="M4.01977 -1.78739e-05C2.67985 4.03323 1.33993 8.06648 8.02055e-06 12.0997C4.6988 15.1536 9.44226 18.0729 14.2304 20.8579C33.3829 31.9976 53.25 40.9863 73.8317 47.824C145.868 71.7557 218.877 92.7596 292.858 110.836C298.142 112.127 303.432 113.403 308.726 114.664C310.066 110.631 311.406 106.598 312.746 102.564C307.749 100.407 302.748 98.2643 297.741 96.1366C227.651 66.3492 156.587 39.4897 84.5511 15.558C63.9693 8.72034 42.673 4.03378 20.662 1.49828C15.1593 0.864405 9.61184 0.364974 4.01977 -1.78739e-05Z" fill="#FF6BB5"/>
</svg>
