<svg width="161" height="129" viewBox="0 0 161 129" fill="none" xmlns="http://www.w3.org/2000/svg">
<path d="M74.9398 115.289C76.9648 120.282 84.0352 120.282 86.0602 115.289L97.0546 88.1768C97.9727 85.9129 100.172 84.4316 102.615 84.4316H134.827C140.954 84.4316 143.141 76.3288 137.846 73.2462L114.24 59.5047C111.66 58.0026 110.577 54.8316 111.699 52.0646L121.216 28.595C123.366 23.2933 117.582 18.2766 112.637 21.1548L83.5186 38.106C81.6528 39.1921 79.3472 39.1921 77.4814 38.106L48.3626 21.1548C43.4183 18.2766 37.6338 23.2933 39.7838 28.595L49.3012 52.0646C50.4232 54.8316 49.34 58.0026 46.7595 59.5047L23.1543 73.2462C17.8589 76.3288 20.0456 84.4316 26.1729 84.4316H58.3852C60.8282 84.4316 63.0273 85.9128 63.9454 88.1768L74.9398 115.289Z" fill="#E3EAC2"/>
</svg>
